HIERARCHY
ROOT Hips
{
  OFFSET 0 0 0
  CHANNELS 6 Xposition Yposition Zposition Zrotation Xrotation Yrotation
  JOINT Spine
  {
    OFFSET 0 10 0
    CHANNELS 3 Zrotation Xrotation Yrotation
    JOINT Neck
    {
      OFFSET 0 30 0
      CHANNELS 3 Zrotation Xrotation Yrotation
      JOINT Head
      {
        OFFSET 0 8 0
        CHANNELS 3 Zrotation Xrotation Yrotation
        End Site
        {
          OFFSET 0 10 0
        }
      }
    }
    JOINT LeftArm
    {
      OFFSET 15 30 0
      CHANNELS 3 Zrotation Xrotation Yrotation
      JOINT LeftForeArm
      {
        OFFSET 25 0 0
        CHANNELS 3 Zrotation Xrotation Yrotation
        JOINT LeftHand
        {
          OFFSET 25 0 0
          CHANNELS 3 Zrotation Xrotation Yrotation
          End Site
          {
            OFFSET 10 0 0
          }
        }
      }
    }
    JOINT RightArm
    {
      OFFSET -15 30 0
      CHANNELS 3 Zrotation Xrotation Yrotation
      JOINT RightForeArm
      {
        OFFSET -25 0 0
        CHANNELS 3 Zrotation Xrotation Yrotation
        JOINT RightHand
        {
          OFFSET -25 0 0
          CHANNELS 3 Zrotation Xrotation Yrotation
          End Site
          {
            OFFSET -10 0 0
          }
        }
      }
    }
  }
  JOINT LeftUpLeg
  {
    OFFSET 10 -10 0
    CHANNELS 3 Zrotation Xrotation Yrotation
    JOINT LeftLeg
    {
      OFFSET 0 -35 0
      CHANNELS 3 Zrotation Xrotation Yrotation
      JOINT LeftToe
      {
        OFFSET 0 -40 0
        CHANNELS 3 Zrotation Xrotation Yrotation
        JOINT LeftToeEnd
        {
          OFFSET 0 0 0
          CHANNELS 3 Zrotation Xrotation Yrotation
          End Site
          {
            OFFSET 0 0 15
          }
        }
      }
    }
  }
  JOINT RightUpLeg
  {
    OFFSET -10 -10 0
    CHANNELS 3 Zrotation Xrotation Yrotation
    JOINT RightLeg
    {
      OFFSET 0 -35 0
      CHANNELS 3 Zrotation Xrotation Yrotation
      JOINT RightToe
      {
        OFFSET 0 -40 0
        CHANNELS 3 Zrotation Xrotation Yrotation
        JOINT RightToeEnd
        {
          OFFSET 0 0 0
          CHANNELS 3 Zrotation Xrotation Yrotation
          End Site
          {
            OFFSET 0 0 15
          }
        }
      }
    }
  }
}
MOTION
Frames:	21
Frame Time:	0.0333333
-16.0676 87.3341 171.565 5.07996 4.32615 -20.3043 -9.83878 7.94349 2.44777 -6.99356 -23.506 -6.26479 17.094 24.006 -13.5444 -84.1184 3.38097 -5.76234 11.146 -1.63297 -17.6361 -0.400845 8.87552 -0.982365 88.059 24.9972 7.75327 -13.7198 -2.7736 18.1275 0.894875 17.5353 0.359002 -1.90402 -9.82626 -4.3362 0.0734398 22.0977 -2.73572 -0.00523825 -16.5854 14.7911 2.48481e-016 3.97569e-016 -3.18055e-015 -0.377299 -12.6898 16.8402 -0.836472 28.5966 1.56956 -0.671412 -20.6368 -17.323 2.48481e-017 1.98785e-016 -0 
-16.0636 87.3659 171.503 5.09364 4.3235 -20.2719 -9.99569 8.59639 2.5505 -6.67225 -23.8318 -5.86479 16.8114 23.7993 -12.7463 -83.995 3.79211 -6.25002 11.2607 -1.67493 -17.8572 -0.391583 8.57691 -0.981579 87.7827 25.4724 8.15241 -13.8413 -2.84652 18.387 0.870082 17.341 0.392248 -1.85464 -10.1552 -4.14614 0.123578 22.5259 -2.50391 -0.199136 -16.6199 14.3055 9.93923e-017 0 3.18055e-015 -0.370931 -12.794 16.7837 -0.872083 28.7399 1.60307 -0.645444 -20.6647 -17.2463 -4.96962e-017 9.93923e-017 3.18055e-015 
-16.0483 87.3716 171.408 5.23276 4.45124 -20.3281 -10.2595 9.06317 2.64656 -6.38466 -24.5251 -5.47787 16.6091 24.2461 -12.0058 -83.8687 4.58569 -6.40769 11.5153 -1.77686 -18.348 -0.385465 7.70859 -0.979453 87.623 25.9495 8.35355 -14.0002 -2.95686 18.7748 0.843959 17.1833 0.411715 -1.87783 -10.74 -3.87511 0.184769 23.0417 -2.25459 -0.365924 -16.6726 13.7302 4.96962e-017 -5.96354e-016 -0 -0.395609 -13.2632 16.7877 -0.930605 29.1473 1.66973 -0.57866 -20.7621 -17.0963 9.93923e-017 1.98785e-016 -6.36111e-015 
-16.0386 87.3542 171.288 5.2515 4.39123 -20.4397 -10.4977 10.0917 3.03494 -6.45043 -25.5496 -5.15332 16.8617 24.6477 -11.4115 -83.6991 5.16837 -7.00295 11.7376 -1.86998 -18.8085 -0.360222 7.3305 -0.99175 87.2616 26.3532 8.92486 -14.151 -3.05938 19.1393 0.825038 16.8393 0.431577 -1.82494 -11.239 -3.40153 0.267858 23.8327 -2.00951 -0.509945 -16.8584 13.0639 9.93923e-017 -5.96354e-016 1.59028e-015 -0.347841 -13.6024 16.7758 -1.00508 29.6757 1.75048 -0.496284 -20.8965 -16.7988 -4.96962e-017 0 -0 
-16.0024 87.338 171.129 5.29739 4.43895 -20.5383 -10.6996 11.2506 3.4585 -6.25198 -26.1675 -4.75981 16.636 24.1741 -10.6219 -83.4434 6.10671 -7.70027 12.0244 -1.98744 -19.3705 -0.345679 6.43416 -1.02027 86.7789 26.5985 9.67261 -14.2845 -3.12703 19.4283 0.787687 16.8544 0.51386 -1.78563 -11.9884 -2.97638 0.36781 24.7761 -1.76669 -0.65442 -17.0062 12.4241 -9.93923e-017 -3.97569e-016 -0 -0.307564 -13.977 16.6867 -1.12503 30.0918 1.84316 -0.398974 -20.9945 -16.4624 -2.48481e-017 -9.93923e-017 -3.18055e-015 
-15.937 87.27 170.916 5.33588 4.49554 -20.5568 -10.9292 12.6889 3.83957 -5.71863 -26.6703 -4.40586 15.5877 23.0991 -9.77234 -83.1015 7.22871 -8.51541 12.4267 -2.16495 -20.1668 -0.317823 5.44922 -1.03472 86.0985 27.2831 10.441 -14.4972 -3.27721 19.9345 0.778964 16.0561 0.540123 -1.74377 -13.0745 -2.45983 0.50983 26.1909 -1.51484 -0.740092 -17.2766 11.5687 -4.96962e-017 -3.97569e-016 3.18055e-015 -0.201104 -14.7529 16.4842 -1.23714 31.0481 1.96751 -0.389865 -21.2071 -16.1597 -4.96962e-017 -1.98785e-016 -0 
-15.8009 87.1837 170.585 5.09862 4.65702 -20.5985 -10.5448 14.7443 4.24475 -5.71699 -27.7169 -4.13876 14.8456 22.0718 -8.87138 -83.0058 8.47583 -9.70752 12.8641 -2.36779 -21.0515 -0.287826 4.48676 -1.05759 84.902 27.6868 11.7461 -14.6842 -3.3961 20.3653 0.783428 16.197 0.557275 -1.46625 -14.5779 -2.19771 0.683715 28.1611 -1.24841 -0.809625 -17.664 10.9423 5.46658e-016 -1.98785e-016 1.59028e-015 0.296226 -15.6335 16.526 -1.37793 32.003 2.101 -0.532024 -21.2523 -15.9657 9.93923e-017 -1.98785e-016 -0 
-15.6386 87.0223 170.208 5.08826 4.8309 -20.5769 -10.6401 16.8686 4.75258 -5.69402 -28.3023 -3.85423 14.5779 20.2423 -7.99732 -82.4334 10.6615 -10.5647 13.5997 -2.72551 -22.5333 -0.259295 2.97059 -1.10109 83.9442 28.0558 12.9044 -14.9538 -3.55954 20.9687 0.819284 15.627 0.597433 -1.39196 -16.2803 -1.86331 0.863561 30.1797 -0.982976 -0.889021 -18.0501 9.99436 -5.46658e-016 0 -0 0.610191 -16.8632 16.5952 -1.56039 33.4198 2.3065 -0.485903 -21.5376 -15.7676 5.51738e-033 -9.93923e-017 3.18055e-015 
-15.4409 86.7767 169.698 5.4024 5.09275 -20.1379 -10.9015 18.9659 4.7724 -5.48019 -29.2569 -3.94921 13.8927 18.4694 -7.49837 -81.5067 12.5266 -11.6929 14.008 -2.95406 -23.3918 -0.249576 2.52313 -1.0764 83.1761 27.6028 14.1656 -15.088 -3.64734 21.3207 0.832608 15.553 0.614871 -1.66493 -18.0397 -1.59356 1.03182 31.7412 -0.969583 -0.909463 -18.1981 9.17957 -6.4605e-016 0 3.18055e-015 0.437961 -18.447 15.9378 -1.72169 35.1 2.51876 -0.25658 -22.0185 -15.3671 4.96962e-017 -9.93923e-017 -0 
-15.2637 86.5237 169.347 5.35261 5.33025 -20.6433 -10.7934 20.9247 5.53211 -5.48875 -29.6161 -3.7725 13.2599 16.0428 -6.94556 -80.7732 14.9554 -12.1877 14.6381 -3.31513 -24.7026 -0.259957 1.19129 -1.07237 82.0571 27.5411 15.097 -15.2649 -3.73788 21.7049 0.899602 14.9921 0.639811 -1.37621 -19.4461 -0.825843 1.18053 33.336 -0.939759 -0.827154 -18.7319 8.76676 -1.10348e-032 -3.97569e-016 -1.59028e-015 0.918898 -19.8561 16.3033 -1.8817 36.5568 2.71282 -0.257356 -22.2349 -14.973 -1.49089e-016 0 3.18055e-015 
-15.041 86.1852 168.81 5.89633 5.93164 -20.6854 -11.3578 22.6795 5.78124 -5.26254 -30.0953 -3.80441 12.9071 13.2922 -6.50779 -79.3326 17.6043 -12.4643 15.4679 -3.82177 -26.4465 -0.243555 -0.479504 -1.07705 81.2475 27.564 15.9801 -15.444 -3.86002 22.1531 0.958961 14.4941 0.627574 -1.59873 -21.645 -0.288698 1.34892 34.8994 -0.901662 -0.84281 -18.9766 7.9221 -2.98177e-016 -3.97569e-016 -1.59028e-015 0.875058 -22.3753 16.1307 -2.06375 38.7182 2.97052 -0.158217 -22.6193 -14.5624 -1.49089e-016 0 3.18055e-015 
-14.7702 85.7358 168.188 6.38831 6.36886 -20.7354 -11.9598 25.0556 6.17092 -5.2548 -30.5117 -3.89066 12.7824 9.87461 -5.97372 -77.9178 19.4466 -13.1341 16.0157 -4.19018 -27.6619 -0.210597 -1.57694 -1.09119 80.3398 27.2669 17.1134 -15.5171 -3.91751 22.4011 0.988556 14.158 0.628544 -1.81593 -23.9004 0.271701 1.55099 36.8174 -0.872442 -0.841045 -19.4071 7.06646 1.73937e-016 1.98785e-016 -1.59028e-015 0.908648 -24.8861 16.2088 -2.25802 41.1792 3.2981 0.0725957 -23.1594 -14.2646 -3.97569e-016 9.93923e-017 3.18055e-015 
-14.4594 85.2339 167.533 6.97963 7.10132 -20.6261 -12.3618 27.4929 6.38872 -5.64528 -31.9496 -4.17212 12.7919 7.38263 -5.53026 -76.3674 20.9309 -13.9747 16.3501 -4.4451 -28.4691 -0.189041 -2.72943 -1.08539 79.6224 26.4016 18.1502 -15.5314 -3.91077 22.4776 1.05283 14.147 0.594921 -1.95672 -26.6695 1.00463 1.73988 38.824 -0.815285 -0.938477 -19.7193 5.9093 -6.21202e-016 9.93923e-017 1.59028e-015 0.795015 -27.8257 15.9374 -2.42879 43.705 3.60477 0.231128 -23.6559 -13.7502 4.47266e-016 -9.93923e-017 -0 
-14.1003 84.7311 166.946 7.52722 8.02499 -20.1561 -12.3953 29.8388 6.32557 -5.69384 -33.0577 -4.56149 12.1062 4.5805 -5.36521 -75.0624 21.8549 -14.7521 16.3485 -4.47431 -28.5721 -0.194628 -3.25794 -1.07606 79.2306 25.3396 18.5312 -15.5309 -3.89325 22.5404 1.11356 13.4628 0.582994 -2.33002 -29.498 0.986516 1.92682 40.7361 -0.773826 -1.04576 -19.9459 4.87303 -1.49089e-016 -1.98785e-016 -1.59028e-015 0.496037 -30.7231 15.4275 -2.54934 45.9682 3.8918 0.441728 -24.1134 -13.3719 -9.93923e-017 2.98177e-016 -0 
-13.6805 84.1709 166.309 7.61047 9.50696 -19.8136 -11.287 32.1068 6.03288 -6.42194 -34.0176 -4.98116 12.0223 1.12378 -4.93636 -74.4134 21.9334 -15.7258 16.0908 -4.32678 -28.1412 -0.219199 -3.12309 -1.07586 78.0566 24.6729 18.9263 -15.3739 -3.7801 22.2986 1.16792 12.9198 0.58255 -1.81225 -33.1194 1.43574 2.0773 43.0785 -0.641042 -1.23279 -20.2995 3.56791 -2.11209e-016 2.98177e-016 1.59028e-015 0.756449 -33.9436 14.8664 -2.60856 47.8517 4.12327 0.735092 -24.2811 -12.6305 -1.98785e-016 1.98785e-016 -0 
-13.3083 83.5967 165.723 7.97616 11.0584 -19.7524 -10.8233 34.0896 6.02698 -6.71232 -35.086 -5.2734 11.8448 -1.90587 -4.60896 -73.8782 21.3259 -16.2948 15.6868 -4.08955 -27.4179 -0.215695 -2.44688 -1.06698 77.2702 23.9598 19.1231 -14.951 -3.51781 21.5548 1.28431 13.5206 0.428354 -1.64049 -36.473 1.56252 2.1723 44.8715 -0.496606 -1.34898 -20.6643 2.92288 -1.04362e-015 -1.2424e-017 6.36111e-015 0.767136 -37.3779 14.369 -2.63452 49.7662 4.33182 0.982719 -24.4378 -11.7396 3.47873e-016 -1.98785e-016 6.36111e-015 
-12.9615 82.9671 165.138 8.94642 12.7426 -19.5689 -11.0875 35.7044 5.73807 -6.53017 -35.6297 -5.46035 11.6818 -5.15107 -4.0878 -73.0995 20.4933 -16.6269 15.1298 -3.77245 -26.3888 -0.273875 -2.2435 -1.01008 77.4263 22.9706 19.015 -14.6192 -3.32379 21.0009 1.32467 13.8484 0.367682 -2.076 -40.0923 1.61054 2.24642 46.448 -0.444769 -2.00929 -20.5563 1.80692 2.67117e-016 0 -0 0.091998 -41.2782 13.7203 -2.63729 52.0125 4.58156 1.2252 -24.7723 -11.2496 3.47873e-016 9.93923e-017 -3.18055e-015 
-12.6778 82.4245 164.754 10.0395 13.6846 -19.8628 -12.1667 37.7472 6.23033 -6.37447 -36.4152 -5.60672 11.6196 -7.39882 -3.81439 -72.6184 19.2823 -16.823 14.5696 -3.44894 -25.32 -0.250944 -1.4381 -1.04462 77.9117 21.4874 19.0651 -14.118 -3.03349 20.0629 1.33649 13.7591 0.289458 -2.81346 -42.6042 1.78697 2.32988 47.7175 -0.426611 -2.37354 -20.5784 1.25869 4.09993e-016 4.96962e-017 3.18055e-015 -0.694602 -44.1935 13.5221 -2.68564 54.024 4.83498 1.34752 -25.1685 -11.157 -9.93923e-017 9.93923e-017 -3.18055e-015 
-12.4036 81.8195 164.411 11.8177 14.8178 -19.7993 -13.6051 39.2823 6.25123 -6.14573 -36.8243 -5.87707 11.7503 -9.48256 -3.55436 -71.7827 18.5379 -17.1141 14.0596 -3.16425 -24.3298 -0.230688 -0.688363 -1.07827 78.7431 20.6489 18.5446 -13.6799 -2.76809 19.243 1.392 14.3036 0.322709 -4.70369 -45.3103 1.27978 2.4246 48.6503 -0.335232 -2.36089 -20.4286 0.501816 -6.21202e-017 0 4.77083e-015 -2.28417 -47.5786 13.2997 -2.73996 56.4787 5.17282 1.38155 -25.8701 -11.5656 -1.49089e-016 3.97569e-016 -0 
-12.1848 81.2704 164.192 11.4276 15.8289 -19.0745 -11.8915 41.712 5.73129 -6.65108 -37.928 -6.32868 11.1871 -10.1092 -3.73511 -71.784 18.3149 -17.4184 13.6374 -2.95455 -23.5822 -0.243143 -0.191545 -1.08294 78.6335 19.5886 18.3564 -13.2816 -2.54915 18.5037 1.46998 14.5977 0.238779 -4.28416 -47.638 1.07594 2.5221 50.483 -0.398033 -3.13186 -20.6963 -0.149394 7.45443e-017 0 -0 -1.38565 -49.2039 13.6812 -2.844 57.9554 5.37265 0.794143 -26.3329 -12.3574 2.48481e-016 1.98785e-016 6.36111e-015 
-11.999 80.5682 164.069 13.0235 16.6569 -18.5877 -12.6475 43.1668 5.3882 -6.22976 -38.664 -6.57131 10.6012 -10.7978 -3.65428 -70.9303 18.6155 -17.6268 13.2397 -2.75799 -22.8277 -0.252772 -0.280649 -1.07963 79.5686 18.3386 17.7939 -12.9064 -2.36642 17.8786 1.541 15.5752 0.101131 -6.66964 -49.8367 0.0449932 2.67621 51.5407 -0.434575 -3.32098 -20.7339 -0.796444 0 9.93923e-017 -0 -3.31121 -52.1134 13.1064 -2.91677 60.62 5.78247 0.962507 -27.3388 -12.5749 2.98177e-016 1.98785e-016 -6.36111e-015 
